<svg width="16" height="12" viewBox="0 0 16 12" fill="none" xmlns="http://www.w3.org/2000/svg">
<g clip-path="url(#clip0_79_39)">
<path d="M9 12H1C0.734784 12 0.480444 11.8946 0.292908 11.7071C0.105371 11.5196 0 11.2652 0 11C0 10.7348 0.105371 10.4804 0.292908 10.2929C0.480444 10.1054 0.734784 10 1 10H9C9.26522 10 9.51956 10.1054 9.70709 10.2929C9.89463 10.4804 10 10.7348 10 11C10 11.2652 9.89463 11.5196 9.70709 11.7071C9.51956 11.8946 9.26522 12 9 12ZM15 7H1C0.734784 7 0.480444 6.89463 0.292908 6.70709C0.105371 6.51956 0 6.26522 0 6C0 5.73478 0.105371 5.48044 0.292908 5.29291C0.480444 5.10537 0.734784 5 1 5H15C15.2652 5 15.5196 5.10537 15.7071 5.29291C15.8946 5.48044 16 5.73478 16 6C16 6.26522 15.8946 6.51956 15.7071 6.70709C15.5196 6.89463 15.2652 7 15 7ZM15 2H1C0.734784 2 0.480444 1.89463 0.292908 1.70709C0.105371 1.51956 0 1.26522 0 1C0 0.734784 0.105371 0.480444 0.292908 0.292908C0.480444 0.105371 0.734784 0 1 0H15C15.2652 0 15.5196 0.105371 15.7071 0.292908C15.8946 0.480444 16 0.734784 16 1C16 1.26522 15.8946 1.51956 15.7071 1.70709C15.5196 1.89463 15.2652 2 15 2Z" fill="#333333"/>
</g>
<defs>
<clipPath id="clip0_79_39">
<rect width="16" height="12" fill="white"/>
</clipPath>
</defs>
</svg>
