<svg width="17" height="17" viewBox="0 0 17 17" fill="none" xmlns="http://www.w3.org/2000/svg">
<path d="M16.7097 16.719C16.5223 16.9059 16.2684 17.0108 16.0037 17.0108C15.7391 17.0108 15.4852 16.9059 15.2977 16.719L12.0417 13.432C10.6977 14.451 9.04862 14.9855 7.36241 14.9486C5.67621 14.9117 4.05202 14.3057 2.75382 13.229C1.45562 12.1523 0.559699 10.6682 0.211666 9.01784C-0.136367 7.36753 0.0839435 5.64803 0.836792 4.13877C1.58964 2.62951 2.83078 1.41921 4.3585 0.704562C5.88622 -0.0100847 7.61072 -0.187072 9.25175 0.202363C10.8928 0.591797 12.3539 1.52476 13.3976 2.84964C14.4413 4.17452 15.0063 5.81343 15.0007 7.50003C14.9955 9.13542 14.451 10.7234 13.4517 12.018L16.7097 15.307C16.8966 15.4945 17.0015 15.7484 17.0015 16.013C17.0015 16.2777 16.8966 16.5316 16.7097 16.719ZM7.50075 2.00003C6.41295 2.00003 5.34958 2.3226 4.44511 2.92694C3.54064 3.53129 2.83569 4.39028 2.41941 5.39527C2.00313 6.40026 1.89421 7.50613 2.10643 8.57302C2.31865 9.63992 2.84247 10.6199 3.61166 11.3891C4.38085 12.1583 5.36086 12.6821 6.42775 12.8943C7.49465 13.1066 8.60052 12.9976 9.60551 12.5814C10.6105 12.1651 11.4695 11.4601 12.0738 10.5557C12.6782 9.65119 13.0007 8.58782 13.0007 7.50003C13.0007 6.04134 12.4213 4.64239 11.3898 3.61094C10.3584 2.57949 8.95944 2.00003 7.50075 2.00003Z" fill="#777777"/>
</svg>
