<svg width="7" height="11" viewBox="0 0 7 11" fill="none" xmlns="http://www.w3.org/2000/svg">
<path opacity="0.5" fill-rule="evenodd" clip-rule="evenodd" d="M6.76003 4.72998L6.78005 4.75L4.00002 11H3.00002L0.250025 4.81006L0.260035 4.7998C0.0867444 4.38839 -0.00169916 3.94642 2.47234e-05 3.5C2.47234e-05 2.57174 0.368794 1.68128 1.02517 1.0249C1.68155 0.368525 2.57177 0 3.50002 0C4.42828 0 5.3185 0.368525 5.97488 1.0249C6.63126 1.68128 7.00002 2.57174 7.00002 3.5C6.99768 3.9214 6.91628 4.33861 6.76003 4.72998ZM3.50002 2C3.25752 1.99735 3.01809 2.0542 2.80264 2.16553C2.58718 2.27685 2.40221 2.43935 2.26406 2.63867C2.12592 2.838 2.03876 3.06826 2.01016 3.30908C1.98155 3.54991 2.01239 3.79388 2.1 4.02002L2.08999 4.02979L3.47 8L4.87002 4.1001C4.88002 4.0801 4.88004 4.06004 4.89004 4.04004L4.91006 4L4.90005 3.99023C4.96386 3.83463 4.99776 3.66816 5.00002 3.5C5.00002 3.10218 4.842 2.72076 4.56069 2.43945C4.27939 2.15815 3.89785 2 3.50002 2Z" fill="white"/>
</svg>
