<svg width="11" height="9" viewBox="0 0 11 9" fill="none" xmlns="http://www.w3.org/2000/svg">
<path opacity="0.5" fill-rule="evenodd" clip-rule="evenodd" d="M9 9H2C1.47005 8.99842 0.962255 8.78733 0.587524 8.4126C0.212794 8.03787 0.00158273 7.52995 0 7V2C0 1.46957 0.210743 0.96101 0.585815 0.585938C0.960888 0.210865 1.46957 0 2 0H9C9.53043 0 10.0391 0.210865 10.4142 0.585938C10.7893 0.96101 11 1.46957 11 2V7C10.9984 7.52995 10.7872 8.03787 10.4125 8.4126C10.0377 8.78733 9.52995 8.99842 9 9ZM9 7V3.95996L6 6H5L2 3.95996V7H9ZM2.38 2L5.45996 4.06006L8.53003 2H2.38Z" fill="white"/>
</svg>
