<svg width="6" height="11" viewBox="0 0 6 11" fill="none" xmlns="http://www.w3.org/2000/svg">
<path opacity="0.5" fill-rule="evenodd" clip-rule="evenodd" d="M3.74009 7.99859C4.08275 8.59677 4.46006 9.1744 4.8701 9.72857C4.91833 9.78206 4.95353 9.84621 4.97288 9.91558C4.99224 9.98495 4.99524 10.0577 4.98167 10.1285C4.96811 10.1992 4.93828 10.266 4.89464 10.3233C4.85099 10.3806 4.79468 10.4267 4.73008 10.4585L4.43016 10.7188C4.32545 10.8212 4.1995 10.8989 4.06126 10.9473C3.92302 10.9957 3.77582 11.0133 3.63011 10.9986C3.12123 10.9999 2.61522 10.9223 2.13011 10.7686C1.60549 10.4238 1.16383 9.96676 0.837018 9.43071C0.510204 8.89467 0.306349 8.29282 0.240095 7.66851C-0.0866658 6.253 -0.0797994 4.78111 0.260114 3.3687C0.333946 2.73912 0.545044 2.13338 0.878522 1.59429C1.212 1.05519 1.65966 0.595756 2.19005 0.248585C2.67329 0.0860092 3.1802 0.00466915 3.69005 0.00835112C3.83517 -0.0110524 3.98284 0.00352259 4.12156 0.0503433C4.26029 0.097164 4.38641 0.174993 4.49009 0.278371L4.79014 0.528371C4.85109 0.565518 4.90304 0.615855 4.94249 0.675343C4.98193 0.734831 5.00792 0.802008 5.01841 0.872609C5.02891 0.94321 5.02371 1.01565 5.00328 1.08403C4.98284 1.15242 4.94764 1.21534 4.90013 1.2686C4.44013 1.94861 4.11012 2.42859 3.77012 2.99859C3.71711 3.09412 3.62975 3.16584 3.52574 3.19927C3.42173 3.2327 3.30881 3.22551 3.21007 3.17876C3.02007 3.15876 2.89009 3.1387 2.74009 3.1187C2.60589 3.07137 2.45872 3.07719 2.3286 3.13482C2.19848 3.19244 2.09529 3.29757 2.04014 3.42876C1.7919 4.09462 1.65997 4.79779 1.65013 5.50835C1.6493 6.21813 1.77457 6.92248 2.02012 7.58843C2.07373 7.71819 2.17567 7.822 2.30443 7.87798C2.43318 7.93396 2.57861 7.93803 2.71007 7.88872C2.86007 7.86872 3.00016 7.84866 3.18016 7.82866C3.27796 7.7825 3.38941 7.7743 3.4929 7.80571C3.59639 7.83713 3.68446 7.90584 3.74009 7.99859Z" fill="white"/>
</svg>
