<svg width="21" height="16" viewBox="0 0 21 16" fill="none" xmlns="http://www.w3.org/2000/svg">
<g clip-path="url(#clip0_91_100)">
<path d="M20.9998 0.855981C21.0088 0.931046 21.0088 1.00693 20.9998 1.08199C20.9998 1.08899 20.9998 1.09498 20.9998 1.10198C20.9864 1.2272 20.9483 1.34856 20.8878 1.45901L15.9298 12.342C15.9189 12.3942 15.9035 12.4454 15.8838 12.495C15.8347 12.5745 15.7744 12.6466 15.7048 12.709C15.6241 12.7918 15.5292 12.8595 15.4248 12.909C15.4078 12.917 15.3928 12.928 15.3748 12.935C15.2892 12.9685 15.1993 12.9897 15.1078 12.998C15.0657 13.0045 15.0233 13.0085 14.9808 13.01C14.9087 13.0058 14.8373 12.9937 14.7678 12.974C14.7234 12.9696 14.6792 12.9622 14.6358 12.952C14.6148 12.943 14.6008 12.926 14.5798 12.916C14.5588 12.906 14.5438 12.909 14.5278 12.9L11.3948 11.1L7.87179 15.5C7.80565 15.5768 7.73897 15.6531 7.67178 15.729C7.6062 15.7878 7.53283 15.8372 7.45376 15.876C7.4215 15.8939 7.38812 15.9095 7.35379 15.923C7.25757 15.9587 7.15633 15.9789 7.0538 15.983C7.0348 15.983 7.01878 15.994 6.99978 15.994C6.98078 15.994 6.98278 15.994 6.97378 15.994C6.8736 15.9893 6.77478 15.969 6.68081 15.934C6.64681 15.9251 6.61337 15.9141 6.58078 15.901C6.55281 15.8936 6.52544 15.8842 6.49881 15.873C6.4515 15.8386 6.40759 15.7998 6.36776 15.757C6.33242 15.7289 6.29903 15.6985 6.26779 15.666C6.21703 15.6073 6.17339 15.5429 6.13778 15.474C6.1108 15.4284 6.08768 15.3805 6.06875 15.331C6.04696 15.2617 6.03258 15.1903 6.02578 15.118C6.01466 15.0793 6.00597 15.0398 5.99978 15V8.014L0.679776 4.96398C0.535611 4.91558 0.404723 4.83429 0.297452 4.7265C0.190181 4.6187 0.109497 4.48738 0.0617951 4.34298C0.045056 4.30445 0.0303624 4.26508 0.0177888 4.225C0.0177888 4.211 0.00581172 4.201 0.00381172 4.186C0.00229598 4.15902 0.00229598 4.13198 0.00381172 4.105C-0.0219942 3.95262 -0.0109181 3.79626 0.0362214 3.64907C0.0833609 3.50188 0.165155 3.36816 0.274686 3.25912C0.384217 3.15008 0.518338 3.0689 0.665738 3.02242C0.813138 2.97594 0.969525 2.96551 1.12179 2.992L19.8508 -6.23299e-06C19.8778 -6.23299e-06 19.9028 -6.23299e-06 19.9288 -6.23299e-06C19.9548 -6.23299e-06 19.9758 -6.23299e-06 19.9998 -6.23299e-06C20.1034 -0.00399708 20.2071 0.00847899 20.3068 0.0369811C20.3372 0.0493583 20.3669 0.0634017 20.3958 0.0790038C20.479 0.110658 20.5575 0.153729 20.6288 0.206995C20.6732 0.246639 20.714 0.290148 20.7508 0.336999C20.7953 0.382896 20.8352 0.433141 20.8698 0.486993C20.8808 0.504993 20.8988 0.515997 20.9088 0.534997C20.9362 0.603278 20.956 0.674381 20.9678 0.747003C20.9786 0.771088 20.9879 0.795805 20.9958 0.821008C20.998 0.832553 20.9994 0.844228 20.9998 0.855981ZM14.5468 10.595L17.8788 3.281L9.57876 7.74798L14.5468 10.595ZM7.99978 12.17L9.65078 10.106L7.99978 9.16V12.17ZM7.53781 6.57998L14.3678 2.90399L4.00876 4.557L7.53781 6.57998Z" fill="#848689"/>
</g>
<defs>
<clipPath id="clip0_91_100">
<rect width="21" height="16" fill="white"/>
</clipPath>
</defs>
</svg>
