<svg width="16" height="18" viewBox="0 0 16 18" fill="none" xmlns="http://www.w3.org/2000/svg">
<path d="M7.37793 12.7085C7.3737 12.5562 7.37158 12.4419 7.37158 12.3657C7.37158 11.9172 7.43506 11.5299 7.56201 11.2041C7.65511 10.9587 7.80534 10.7111 8.0127 10.4614C8.16504 10.2795 8.43799 10.015 8.83154 9.66797C9.22933 9.31673 9.48747 9.03743 9.60596 8.83008C9.72445 8.62272 9.78369 8.39632 9.78369 8.15088C9.78369 7.70654 9.61019 7.31722 9.26318 6.98291C8.91618 6.64437 8.49089 6.4751 7.9873 6.4751C7.50065 6.4751 7.0944 6.62744 6.76855 6.93213C6.44271 7.23682 6.229 7.71289 6.12744 8.36035L4.95312 8.2207C5.05892 7.35319 5.37207 6.6888 5.89258 6.22754C6.41732 5.76628 7.10921 5.53564 7.96826 5.53564C8.87809 5.53564 9.60384 5.7832 10.1455 6.27832C10.6872 6.77344 10.958 7.37223 10.958 8.07471C10.958 8.48096 10.8628 8.85547 10.6724 9.19824C10.4819 9.54102 10.1095 9.95785 9.55518 10.4487C9.18278 10.7788 8.93945 11.0221 8.8252 11.1787C8.71094 11.3353 8.6263 11.5151 8.57129 11.7183C8.51628 11.9214 8.48454 12.2515 8.47607 12.7085H7.37793ZM7.30811 15V13.6987H8.60938V15H7.30811Z" fill="#777777"/>
<circle cx="8" cy="10" r="7.5" stroke="#D9D9D9"/>
</svg>
